<svg width="24" height="24" viewBox="0 0 24 24" fill="none" xmlns="http://www.w3.org/2000/svg">
<path d="M3.89062 18.1172C3.79688 18.2109 3.75 18.3516 3.79688 18.4688L4.00781 19.0547C4.07812 19.2422 4.28906 19.3125 4.45312 19.2188L20.1094 9.97656C20.2031 9.92969 20.2266 9.76562 20.1562 9.69531L19.6875 9.22656C19.5938 9.13281 19.4531 9.08594 19.3125 9.10938L3.89062 18.1172ZM3.79688 5.49219L4.26562 5.96094C4.35938 6.05469 4.5 6.10156 4.64062 6.07812L20.0625 3.07031C20.1562 3.04688 20.2031 2.90625 20.1562 2.78906L19.9453 2.20312C19.875 2.01562 19.6641 1.94531 19.5 2.03906L3.84375 11.2812C3.75 11.3281 3.72656 11.4922 3.79688 11.5625L3.79688 5.49219ZM4.26562 12.6406L19.6875 12.6406C19.8281 12.6406 19.9453 12.7578 19.9453 12.8984C19.9453 12.9688 19.9219 13.0391 19.875 13.0859L4.64062 18.6328C4.5 18.6797 4.35938 18.6328 4.26562 18.5391L3.79688 18.0703C3.70312 17.9766 3.65625 17.8359 3.67969 17.6953L4.26562 12.6406Z" fill="url(#paint0_linear_sol)"/>
<defs>
<linearGradient id="paint0_linear_sol" x1="3.70312" y1="19.2188" x2="20.1797" y2="2.03906" gradientUnits="userSpaceOnUse">
<stop stop-color="#9945FF"/>
<stop offset="1" stop-color="#14F195"/>
</linearGradient>
</defs>
</svg>
