<svg width="24" height="24" viewBox="0 0 24 24" fill="none" xmlns="http://www.w3.org/2000/svg">
<path d="M12 22C17.5228 22 22 17.5228 22 12C22 6.47715 17.5228 2 12 2C6.47715 2 2 6.47715 2 12C2 17.5228 6.47715 22 12 22Z" fill="#F0B90B"/>
<path d="M12.0001 15.667L9.49561 13.1625L7.92456 14.7335L12.0001 18.809L16.0756 14.7335L14.5045 13.1625L12.0001 15.667ZM9.49561 10.8375L12.0001 13.342L14.5045 10.8375L12.0001 8.33298L9.49561 10.8375ZM7.11401 10.8375L8.68506 9.26648L7.11401 7.69543L5.54297 9.26648L7.11401 10.8375ZM16.8861 10.8375L18.4571 9.26648L16.8861 7.69543L15.3151 9.26648L16.8861 10.8375ZM12.0001 5.19098L9.49561 7.69543L12.0001 10.2L14.5045 7.69543L12.0001 5.19098Z" fill="white"/>
</svg>
