<svg width="48" height="48" viewBox="0 0 48 48" fill="none" xmlns="http://www.w3.org/2000/svg">
<rect width="48" height="48" rx="8" fill="url(#paint0_linear_25_3147)"/>
<rect x="0.5" y="0.5" width="47" height="47" rx="7.5" stroke="#E5E7EB"/>
<path d="M24 38C31.732 38 38 31.732 38 24C38 16.268 31.732 10 24 10C16.268 10 10 16.268 10 24C10 31.732 16.268 38 24 38Z" stroke="white" stroke-width="2" stroke-linecap="round" stroke-linejoin="round"/>
<path d="M10.8999 24H37.0999" stroke="white" stroke-width="2" stroke-linecap="round" stroke-linejoin="round"/>
<path d="M24 10C27.5 13.5 29.5 18.5 29.5 24C29.5 29.5 27.5 34.5 24 38C20.5 34.5 18.5 29.5 18.5 24C18.5 18.5 20.5 13.5 24 10Z" stroke="white" stroke-width="2" stroke-linecap="round" stroke-linejoin="round"/>
<defs>
<linearGradient id="paint0_linear_25_3147" x1="7.02944" y1="16.9706" x2="24" y2="50.9117" gradientUnits="userSpaceOnUse">
<stop stop-color="#396BFF"/>
<stop offset="1" stop-color="#8B5CFF"/>
</linearGradient>
</defs>
</svg>

