<svg width="24" height="24" viewBox="0 0 24 24" fill="none" xmlns="http://www.w3.org/2000/svg">
<circle cx="12" cy="12" r="12" fill="#F7931A"/>
<path d="M16.684 8.037C16.538 7.425 15.662 6.963 14.14 6.715L14.568 4.999L13.522 4.738L13.094 6.454C12.819 6.385 12.542 6.321 12.267 6.263L12.696 4.547L11.649 4.286L11.221 6.002C10.991 5.95 10.761 5.901 10.536 5.856L10.538 5.845L9.096 5.485L8.816 6.606C8.816 6.606 9.6 6.786 9.583 6.806C9.794 6.859 9.85 6.989 9.84 7.186L9.399 8.953C9.433 8.962 9.479 8.975 9.53 9.029C9.473 9.015 9.421 9.001 9.381 8.991L8.766 11.454C8.721 11.698 8.57 11.852 8.372 11.803C8.39 11.824 7.604 11.628 7.604 11.628L6.946 13.156L8.302 13.495C8.529 13.552 8.751 13.607 8.972 13.659L8.543 15.379L9.589 15.64L10.019 13.92C10.282 13.992 10.542 14.058 10.797 14.121L10.369 15.839L11.416 16.1L11.844 14.383C14.02 14.795 15.656 14.716 16.225 13.092C16.683 11.783 16.203 11.029 15.36 10.613C15.966 10.473 16.426 9.96 16.684 8.037ZM14.209 12.077C13.88 13.394 11.653 12.76 10.884 12.568L11.432 10.37C12.2 10.562 14.676 10.687 14.209 12.077ZM14.562 8.736C14.262 9.938 12.389 9.429 11.724 9.263L12.213 7.305C12.878 7.471 14.987 7.525 14.562 8.736Z" fill="white"/>
</svg>
