<svg width="24" height="24" viewBox="0 0 24 24" fill="none" xmlns="http://www.w3.org/2000/svg">
<path d="M12 2C6.48 2 2 6.48 2 12s4.48 10 10 10 10-4.48 10-10S17.52 2 12 2zm4.64 6.8c-.15 1.58-.8 5.42-1.13 7.19-.14.75-.42 1-.68 1.03-.58.05-1.02-.38-1.58-.75-.88-.58-1.38-.94-2.23-1.5-.99-.58-.35-1.6.22-2.18.15-.15 2.71-2.48 2.76-2.69.01-.03.01-.14-.07-.2-.08-.06-.19-.04-.27-.02-.11.02-1.93 1.17-5.44 3.54-.51.34-.98.51-1.4.5-.46-.01-1.35-.26-2.01-.48-.81-.27-1.44-.42-1.38-.88.03-.24.38-.49 1.03-.75 4.06-1.76 6.76-2.92 8.11-3.48 3.85-1.6 4.64-1.92 5.17-1.93.11 0 .37.03.54.17.14.12.18.28.2.43-.02.07-.02.14-.02.23z" fill="currentColor"/>
</svg>
