<svg width="24" height="24" viewBox="0 0 24 24" fill="none" xmlns="http://www.w3.org/2000/svg">
<path d="M12 22C17.5228 22 22 17.5228 22 12C22 6.47715 17.5228 2 12 2C6.47715 2 2 6.47715 2 12C2 17.5228 6.47715 22 12 22Z" fill="#BA9F33"/>
<path d="M18.5 10.5C18.5 10.5 17.5 9.5 16.5 10.5C15.5 11.5 14.5 12.5 14.5 12.5C14.5 12.5 14.5 11.5 15.5 10.5C16.5 9.5 16.5 8.5 15.5 7.5C14.5 6.5 13.5 6.5 12.5 6.5C11.5 6.5 10.5 7.5 9.5 8.5C8.5 9.5 8.5 10.5 9.5 11.5C10.5 12.5 10.5 12.5 10.5 12.5C10.5 12.5 9.5 11.5 8.5 10.5C7.5 9.5 6.5 10.5 6.5 10.5C6.5 10.5 6.5 12.5 7.5 13.5C8.5 14.5 10.5 16.5 12.5 16.5C14.5 16.5 16.5 14.5 17.5 13.5C18.5 12.5 18.5 10.5 18.5 10.5Z" fill="white" fill-opacity="0.8"/>
</svg>
